<?xml version="1.0" encoding="UTF-8" standalone="no"?>
<!-- Created with Inkscape (http://www.inkscape.org/) -->

<svg
   xmlns:dc="http://purl.org/dc/elements/1.1/"
   xmlns:cc="http://creativecommons.org/ns#"
   xmlns:rdf="http://www.w3.org/1999/02/22-rdf-syntax-ns#"
   xmlns:svg="http://www.w3.org/2000/svg"
   xmlns="http://www.w3.org/2000/svg"
   xmlns:sodipodi="http://sodipodi.sourceforge.net/DTD/sodipodi-0.dtd"
   xmlns:inkscape="http://www.inkscape.org/namespaces/inkscape"
   width="655"
   height="180"
   id="svg2"
   version="1.1"
   inkscape:version="0.48.1 r9760"
   sodipodi:docname="mbm_logo.svg"
   inkscape:export-filename="/home/hs9/Dropbox/Logos/mbm/screen/mbm_logo.png"
   inkscape:export-xdpi="300.02203"
   inkscape:export-ydpi="300.02203">
  <defs
     id="defs4">
    <inkscape:perspective
       sodipodi:type="inkscape:persp3d"
       inkscape:vp_x="0 : 526.18109 : 1"
       inkscape:vp_y="0 : 1000 : 0"
       inkscape:vp_z="744.09448 : 526.18109 : 1"
       inkscape:persp3d-origin="372.04724 : 350.78739 : 1"
       id="perspective10" />
  </defs>
  <sodipodi:namedview
     id="base"
     pagecolor="#ffffff"
     bordercolor="#666666"
     borderopacity="1.0"
     inkscape:pageopacity="0.0"
     inkscape:pageshadow="2"
     inkscape:zoom="1.33"
     inkscape:cx="259.58104"
     inkscape:cy="100.90341"
     inkscape:document-units="px"
     inkscape:current-layer="text2824"
     showgrid="false"
     inkscape:window-width="1360"
     inkscape:window-height="720"
     inkscape:window-x="0"
     inkscape:window-y="0"
     inkscape:window-maximized="1"
     fit-margin-top="0"
     fit-margin-left="0"
     fit-margin-right="0"
     fit-margin-bottom="0">
    <inkscape:grid
       type="xygrid"
       id="grid2832"
       empspacing="5"
       visible="true"
       enabled="true"
       snapvisiblegridlinesonly="true" />
  </sodipodi:namedview>
  <metadata
     id="metadata7">
    <rdf:RDF>
      <cc:Work
         rdf:about="">
        <dc:format>image/svg+xml</dc:format>
        <dc:type
           rdf:resource="http://purl.org/dc/dcmitype/StillImage" />
        <dc:title></dc:title>
      </cc:Work>
    </rdf:RDF>
  </metadata>
  <g
     inkscape:label="Layer 1"
     inkscape:groupmode="layer"
     id="layer1"
     transform="translate(-56.779752,-6.081714)">
    <g
       transform="scale(0.86896442,1.1507951)"
       style="font-size:164.99450684px;font-style:normal;font-variant:normal;font-weight:normal;font-stretch:normal;letter-spacing:-9.67000103px;fill:#6e767b;fill-opacity:1;stroke:none;font-family:Ethnocentric;-inkscape-font-specification:Ethnocentric"
       id="text2824">
      <path
         d="m 350.66462,156.82253 -49,0 -19,-76.199996 -40.4,64.999996 c -5.33349,8.40001 -12.66681,12.6 -22,12.6 -4.80013,0 -9.46679,-1.2 -14,-3.6 -4.53345,-2.39999 -7.93345,-5.39999 -10.2,-9 l -40.6,-64.999996 -18.8,76.199996 -49.199999,0 37.399999,-127.999996 c 1.46662,-5.199866 4.53329,-9.533195 9.2,-13 4.79995,-3.599855 10.26661,-5.399853 16.4,-5.4 9.46659,1.47e-4 17.66658,5.600142 24.6,16.8 l 44,71.8 44.2,-71.8 c 6.79981,-11.199858 14.93314,-16.799853 24.4,-16.8 6.26646,1.47e-4 11.73312,1.800145 16.4,5.4 4.66644,3.466805 7.79977,7.800134 9.4,13 l 37.2,127.999996"
         style="letter-spacing:-13.08999825px"
         id="path3907" />
      <path
         d="m 531.41212,85.022534 c 8.53314,7.733398 12.7998,16.400056 12.8,25.999996 -2e-4,7.06671 -2.33353,13.73337 -7,20 -6.26685,8.53336 -15.60018,15.00002 -28,19.4 -10.93349,3.86667 -23.06681,5.80001 -36.4,5.8 l -120.2,0 0,-89.799996 124.6,0 c 3.7332,9.1e-5 7.19986,-0.533242 10.4,-1.6 4.39985,-1.599906 6.59985,-3.933237 6.6,-7 -1.5e-4,-3.066564 -2.20015,-5.333228 -6.6,-6.8 -3.20014,-1.066559 -6.6668,-1.599892 -10.4,-1.6 l -124.6,0 30.2,-37.4 90,0 c 13.46653,1.46e-4 25.66651,2.000144 36.6,6 12.26649,4.533468 21.53315,11.133462 27.8,19.8 4.66647,6.400113 6.9998,13.200107 7,20.4 -2e-4,9.866756 -4.26686,18.800081 -12.8,26.8 m -54.2,18.799996 -79.8,0 0,15.2 79.8,0 c 4.66653,4e-5 9.06653,-0.46662 13.2,-1.4 6.13318,-1.33329 9.19985,-3.39995 9.2,-6.2 -1.5e-4,-2.79995 -3.06682,-4.86661 -9.2,-6.2 -4.13347,-0.93328 -8.53347,-1.39994 -13.2,-1.4"
         style="letter-spacing:-21.65000725px"
         id="path3909" />
      <path
         d="m 798.3465,156.82253 -49,0 -19,-76.199996 -40.4,64.999996 c -5.33348,8.40001 -12.66681,12.6 -22,12.6 -4.80013,0 -9.46679,-1.2 -14,-3.6 -4.53345,-2.39999 -7.93345,-5.39999 -10.2,-9 l -40.6,-64.999996 -18.8,76.199996 -49.2,0 37.4,-127.999996 c 1.46663,-5.199866 4.53329,-9.533195 9.2,-13 4.79995,-3.599855 10.26661,-5.399853 16.4,-5.4 9.46659,1.47e-4 17.66658,5.600142 24.6,16.8 l 44,71.8 44.2,-71.8 c 6.79982,-11.199858 14.93314,-16.799853 24.4,-16.8 6.26646,1.47e-4 11.73312,1.800145 16.4,5.4 4.66644,3.466805 7.79977,7.800134 9.4,13 l 37.2,127.999996"
         style="letter-spacing:-21.65000725px"
         id="path3911" />
    </g>
  </g>
</svg>
